<svg xmlns="http://www.w3.org/2000/svg" viewBox="0 0 100 100">
  <!-- Arrière-plan noir pour un look Netflix -->
  <rect width="100" height="100" fill="#000000"/>
  
  <!-- Lettre S stylisée en rouge avec un dégradé -->
  <defs>
    <linearGradient id="redGradient" x1="0%" y1="0%" x2="100%" y2="100%">
      <stop offset="0%" style="stop-color:#e50914;stop-opacity:1" />
      <stop offset="100%" style="stop-color:#b20710;stop-opacity:1" />
    </linearGradient>
  </defs>
  
  <!-- S stylisé -->
  <path d="M30 25 L70 25 Q80 25, 80 35 L80 45 Q80 55, 70 55 L50 55 L50 45 L65 45 Q70 45, 70 40 L70 35 Q70 30, 65 30 L35 30 L35 40 L30 40 L30 25 Z" fill="url(#redGradient)"/>
  <path d="M30 60 L70 60 Q80 60, 80 70 L80 75 Q80 85, 70 85 L30 85 L30 75 L35 75 L35 80 L65 80 Q70 80, 70 75 L70 70 Q70 65, 65 65 L30 65 L30 60 Z" fill="url(#redGradient)"/>
  
  <!-- Reflet pour un effet plus professionnel -->
  <path d="M35 30 L40 30 L40 80 L35 80 Z" fill="#ffffff" opacity="0.2"/>
</svg>